<?xml version="1.0" standalone="no"?>
<!DOCTYPE svg PUBLIC "-//W3C//DTD SVG 20010904//EN"
 "http://www.w3.org/TR/2001/REC-SVG-20010904/DTD/svg10.dtd">
<svg version="1.0" xmlns="http://www.w3.org/2000/svg"
 width="512.000000pt" height="512.000000pt" viewBox="0 0 512.000000 512.000000"
 preserveAspectRatio="xMidYMid meet">
<metadata>
Created by potrace 1.11, written by Peter Selinger 2001-2013
</metadata>
<g transform="translate(0.000000,512.000000) scale(0.100000,-0.100000)"
fill="#000000" stroke="none">
<path d="M2517 4694 c-1 -1 -38 -4 -82 -8 -270 -20 -530 -120 -760 -292 -105
-78 -183 -155 -289 -284 -108 -132 -230 -387 -273 -570 -22 -94 -23 -101 -28
-145 -3 -22 -7 -56 -10 -75 -10 -73 -5 -268 9 -347 43 -238 166 -495 391 -817
50 -70 97 -138 105 -150 8 -11 44 -61 81 -111 92 -126 169 -239 215 -315 l39
-65 5 -545 5 -545 148 0 c138 0 149 -2 159 -20 21 -39 124 -131 171 -153 124
-58 249 -48 363 29 41 28 103 91 122 125 10 17 24 19 159 19 l148 1 5 539 5
540 34 60 c47 83 113 180 261 385 317 437 439 653 510 906 85 303 46 654 -109
979 -218 459 -649 779 -1136 845 -71 9 -242 19 -248 14z"/>
</g>
</svg>
